<svg width="162" height="27" viewBox="0 0 162 27" fill="none" xmlns="http://www.w3.org/2000/svg">
<path d="M6.18757 26.4774L8.42899 16.7876L0.911621 10.2703L10.8428 9.4082L14.705 0.270111L18.5671 9.4082L28.4983 10.2703L20.9809 16.7876L23.2223 26.4774L14.705 21.3394L6.18757 26.4774Z" fill="#FFCD29"/>
<path d="M39.4273 26.4774L41.6687 16.7876L34.1514 10.2703L44.0826 9.4082L47.9447 0.270111L51.8068 9.4082L61.738 10.2703L54.2207 16.7876L56.4621 26.4774L47.9447 21.3394L39.4273 26.4774Z" fill="#FFCD29"/>
<path d="M72.6676 26.4774L74.909 16.7876L67.3916 10.2703L77.3228 9.4082L81.1849 0.270111L85.0471 9.4082L94.9783 10.2703L87.4609 16.7876L89.7023 26.4774L81.1849 21.3394L72.6676 26.4774Z" fill="#FFCD29"/>
<path d="M105.907 26.4774L108.149 16.7876L100.631 10.2703L110.563 9.4082L114.425 0.270111L118.287 9.4082L128.218 10.2703L120.701 16.7876L122.942 26.4774L114.425 21.3394L105.907 26.4774Z" fill="#C7C7CD"/>
<path d="M139.148 26.4774L141.389 16.7876L133.872 10.2703L143.803 9.4082L147.665 0.270111L151.527 9.4082L161.458 10.2703L153.941 16.7876L156.182 26.4774L147.665 21.3394L139.148 26.4774Z" fill="#C7C7CD"/>
</svg>
